<?xml version="1.0" encoding="UTF-8" standalone="no"?>
<!-- Created with Inkscape (http://www.inkscape.org/) -->

<svg
   xmlns:svg="http://www.w3.org/2000/svg"
   xmlns="http://www.w3.org/2000/svg"
   xmlns:xlink="http://www.w3.org/1999/xlink"
   version="1.1"
   width="200"
   height="200"
   id="svg2">
  <defs
     id="defs4">
    <linearGradient
       id="linearGradient4220">
      <stop
         id="stop4222"
         style="stop-color:#ee173d;stop-opacity:1"
         offset="0" />
      <stop
         id="stop4224"
         style="stop-color:#3d65ea;stop-opacity:0"
         offset="1" />
    </linearGradient>
    <linearGradient
       x1="39.220501"
       y1="65.25"
       x2="113.49375"
       y2="65.25"
       id="linearGradient4226"
       xlink:href="#linearGradient4220"
       gradientUnits="userSpaceOnUse" />
  </defs>
  <g
     transform="translate(0,-852.36218)"
     id="layer1">
    <path
       d="m 112.75,65.25 a 36.375,43 0 1 1 -72.75,0 36.375,43 0 1 1 72.75,0 z"
       transform="matrix(1.1727092,0,0,1.0676115,-29.565663,840.70053)"
       id="path2816"
       style="opacity:0.99688475;fill:url(#linearGradient4226);fill-opacity:1;stroke:#5af78a;stroke-width:1.55900002;stroke-miterlimit:4;stroke-opacity:1;stroke-dasharray:none" />
    <path
       d="m 152,97.875 a 37.875,47.875 0 1 1 -75.75,0 37.875,47.875 0 1 1 75.75,0 z"
       transform="translate(0,852.36218)"
       id="path2818"
       style="opacity:0.67936509;fill:#d40000;fill-opacity:1;stroke:#5af78a;stroke-width:1.55900002;stroke-miterlimit:4;stroke-opacity:1;stroke-dasharray:none" />
    <path
       d="m 101.25,133.375 a 39.75,46.875 0 1 1 -79.5,0 39.75,46.875 0 1 1 79.5,0 z"
       transform="translate(0,852.36218)"
       id="path2820"
       style="opacity:0.64174458;fill:#c87137;fill-opacity:1;stroke:#5af78a;stroke-width:1.55900002;stroke-miterlimit:4;stroke-opacity:1;stroke-dasharray:none" />
    <path
       d="m 140,140.5 36.32936,9.8405 28.70204,-24.34854 1.86752,37.59216 32.02625,19.77314 L 203.75,196.75 194.84128,233.31901 171.2343,204.00402 133.70216,206.83176 154.28742,175.32137 140,140.5 z"
       transform="translate(-40,817.86218)"
       id="path2822"
       style="opacity:0.54828659;fill:#6c5353;fill-opacity:1;stroke:#5af78a;stroke-width:1.55900002;stroke-miterlimit:4;stroke-opacity:1;stroke-dasharray:none" />
  </g>
</svg>