<?xml version="1.0" standalone="no"?>
<!DOCTYPE svg PUBLIC "-//W3C//DTD SVG 1.1//EN" "http://www.w3.org/Graphics/SVG/1.1/DTD/svg11.dtd">
<!--Generator: Xara Xtreme (www.xara.com), SVG filter version: 1.0.0.13-->
<svg stroke-width="0.501" stroke-linejoin="bevel" fill-rule="evenodd" xmlns:xlink="http://www.w3.org/1999/xlink" xmlns="http://www.w3.org/2000/svg" version="1.1" overflow="visible" width="384px" height="384px" viewBox="0 0 384 384">
 <defs>
  <radialGradient id="RadialGradient" gradientUnits="userSpaceOnUse" cx="166.195" cy="218.394" r="120.054">
   <stop offset="0" stop-color="#888888"/>
   <stop offset="1" stop-color="#333333"/>
  </radialGradient>
 </defs>
 <g id="bounds">
  <rect x="0" y="0" width="384" height="384" fill="#ffffff" stroke="none" stroke-width="0.5" stroke-linejoin="miter" transform="scale(1 -1) translate(0 -384)"/>
 </g>
 <g id="badmine" transform="scale(1 -1) translate(0 -384)">
  <rect x="0" y="-0.001" width="384.001" height="384.001" stroke="none" fill="#bf0000" stroke-width="0.5" stroke-linejoin="miter" stroke-miterlimit="79.8403193612775"/>
  <path d="M 185.245,25.763 L 185.245,53.739 L 178.916,53.739 L 178.916,66.209 C 150.339,71.155 125.215,86.213 107.367,107.56 L 96.541,101.31 L 93.394,106.76 L 69.163,92.768 C 63.659,97.827 56.53,110.175 54.903,117.468 L 79.135,131.457 L 75.968,136.944 L 86.762,143.175 C 82.033,156.062 79.452,169.981 79.452,184.5 C 79.452,199.022 82.035,212.945 86.766,225.833 L 75.975,232.065 L 79.12,237.513 L 54.894,251.498 C 56.521,258.792 63.651,271.14 69.154,276.198 L 93.379,262.209 L 96.549,267.699 L 107.375,261.447 C 125.228,282.794 150.354,297.85 178.931,302.792 L 178.931,315.249 L 185.228,315.249 L 185.228,343.222 C 192.357,345.457 206.615,345.457 213.745,343.222 L 213.745,315.249 L 220.078,315.249 L 220.078,302.792 C 248.659,297.849 273.79,282.789 291.644,261.437 L 302.452,267.677 L 305.6,262.223 L 329.823,276.211 C 335.326,271.154 342.456,258.807 344.082,251.511 L 319.858,237.527 L 323.025,232.043 L 312.249,225.82 C 316.977,212.934 319.559,199.016 319.559,184.5 C 319.559,169.97 316.973,156.04 312.237,143.145 L 323.017,136.923 L 319.866,131.466 L 344.089,117.482 C 342.465,110.187 335.334,97.84 329.832,92.783 L 305.608,106.769 L 302.444,101.288 L 291.623,107.535 C 273.767,86.192 248.639,71.14 220.063,66.203 L 220.063,53.739 L 213.763,53.739 L 213.763,25.763 C 206.634,23.526 192.374,23.526 185.245,25.763 Z" stroke-opacity="0.250980" stroke-linejoin="miter" stroke-width="0.742" stroke="none" fill="#000000" marker-start="none" marker-end="none" stroke-miterlimit="79.8403193612775" fill-opacity="0.250980"/>
  <g id="Group_7" stroke="none">
   <path d="M 192.012,312.058 C 258.281,312.058 312.066,258.274 312.066,192.005 C 312.066,125.735 258.281,71.951 192.012,71.951 C 125.742,71.951 71.957,125.735 71.957,192.005 C 71.957,258.274 125.742,312.058 192.012,312.058 Z" stroke-width="0.694" marker-start="none" marker-end="none" stroke-miterlimit="79.8403193612775" fill="url(#RadialGradient)"/>
   <g id="Group_8" fill="#333333" stroke-width="0.742" stroke-linejoin="miter" stroke-miterlimit="79.8403193612775">
    <rect x="-7.824" y="-20.573" width="15.648" height="41.146" transform="translate(192.006 314.926) rotate(90)"/>
    <path d="M 177.728,350.722 L 177.728,308.253 L 206.245,308.253 L 206.245,350.722 C 199.115,352.957 184.857,352.957 177.728,350.722 Z" marker-start="none" marker-end="none"/>
   </g>
   <g id="Group_9" fill="#333333" stroke-width="0.742" stroke-linejoin="miter" stroke-miterlimit="79.8403193612775">
    <rect x="-7.824" y="-20.573" width="15.649" height="41.146" transform="translate(85.538 253.471) rotate(149.999)"/>
    <path d="M 47.394,258.998 L 84.173,237.767 L 98.431,262.462 L 61.654,283.698 C 56.151,278.64 49.021,266.292 47.394,258.998 Z" marker-start="none" marker-end="none"/>
   </g>
   <g id="Group_10" fill="#333333" stroke-width="0.742" stroke-linejoin="miter" stroke-miterlimit="79.8403193612775">
    <rect x="-7.824" y="-20.572" width="15.648" height="41.145" transform="translate(85.53 130.54) rotate(-150.003)"/>
    <path d="M 61.663,100.268 L 98.441,121.506 L 84.181,146.199 L 47.403,124.968 C 49.03,117.675 56.159,105.327 61.663,100.268 Z" marker-start="none" marker-end="none"/>
   </g>
   <g id="Group_11" fill="#333333" stroke-width="0.742" stroke-linejoin="miter" stroke-miterlimit="79.8403193612775">
    <rect x="-7.824" y="-20.573" width="15.648" height="41.146" transform="translate(191.989 69.063) rotate(-90)"/>
    <path d="M 206.263,33.263 L 206.263,75.732 L 177.745,75.732 L 177.745,33.263 C 184.874,31.026 199.134,31.026 206.263,33.263 Z" marker-start="none" marker-end="none"/>
   </g>
   <g id="Group_12" fill="#333333" stroke-width="0.742" stroke-linejoin="miter" stroke-miterlimit="79.8403193612775">
    <rect x="-7.824" y="-20.572" width="15.648" height="41.145" transform="translate(298.455 130.517) rotate(-29.9966)"/>
    <path d="M 336.589,124.982 L 299.812,146.214 L 285.554,121.518 L 322.332,100.283 C 327.834,105.34 334.965,117.687 336.589,124.982 Z" marker-start="none" marker-end="none"/>
   </g>
   <g id="Group_13" fill="#333333" stroke-width="0.742" stroke-linejoin="miter" stroke-miterlimit="79.8403193612775">
    <rect x="-7.824" y="-20.573" width="15.649" height="41.146" transform="translate(298.464 253.448) rotate(30.0011)"/>
    <path d="M 322.323,283.711 L 285.545,262.474 L 299.803,237.78 L 336.582,259.011 C 334.956,266.307 327.826,278.654 322.323,283.711 Z" marker-start="none" marker-end="none"/>
   </g>
  </g>
 </g>
</svg>
